<svg xmlns="http://www.w3.org/2000/svg" xmlns:xlink="http://www.w3.org/1999/xlink" width="0" height="0" style="display:none;"><symbol viewBox="0 0 24 24" id="icon-arrow-down-s-line"><path fill="none" d="M0 0h24v24H0z"></path><path d="M12 13.172l4.95-4.95 1.414 1.414L12 16 5.636 9.636 7.05 8.222z"></path></symbol><symbol viewBox="0 0 24 24" id="icon-checkbox-multiple-line"><path fill="none" d="M0 0h24v24H0z"></path><path d="M7 7V3a1 1 0 0 1 1-1h13a1 1 0 0 1 1 1v13a1 1 0 0 1-1 1h-4v3.993c0 .556-.449 1.007-1.007 1.007H3.007A1.006 1.006 0 0 1 2 20.993l.003-12.986C2.003 7.451 2.452 7 3.01 7H7zm2 0h6.993C16.549 7 17 7.449 17 8.007V15h3V4H9v3zm6 2H4.003L4 20h11V9zm-6.497 9l-3.536-3.536 1.414-1.414 2.122 2.122 4.242-4.243 1.414 1.414L8.503 18z"></path></symbol><symbol viewBox="0 0 24 24" id="icon-delete-bin-line"><path fill="none" d="M0 0h24v24H0z"></path><path d="M17 6h5v2h-2v13a1 1 0 0 1-1 1H5a1 1 0 0 1-1-1V8H2V6h5V3a1 1 0 0 1 1-1h8a1 1 0 0 1 1 1v3zm1 2H6v12h12V8zm-9 3h2v6H9v-6zm4 0h2v6h-2v-6zM9 4v2h6V4H9z"></path></symbol><symbol viewBox="0 0 24 24" id="icon-eye-line"><path fill="none" d="M0 0h24v24H0z"></path><path d="M12 3c5.392 0 9.878 3.88 10.819 9-.94 5.12-5.427 9-10.819 9-5.392 0-9.878-3.88-10.819-9C2.121 6.88 6.608 3 12 3zm0 16a9.005 9.005 0 0 0 8.777-7 9.005 9.005 0 0 0-17.554 0A9.005 9.005 0 0 0 12 19zm0-2.5a4.5 4.5 0 1 1 0-9 4.5 4.5 0 0 1 0 9zm0-2a2.5 2.5 0 1 0 0-5 2.5 2.5 0 0 0 0 5z"></path></symbol><symbol viewBox="0 0 24 24" id="icon-folder-2-line"><path fill="none" d="M0 0h24v24H0z"></path><path d="M12.414 5H21a1 1 0 0 1 1 1v14a1 1 0 0 1-1 1H3a1 1 0 0 1-1-1V4a1 1 0 0 1 1-1h7.414l2 2zM20 11H4v8h16v-8zm0-2V7h-8.414l-2-2H4v4h16z"></path></symbol><symbol viewBox="0 0 24 24" id="icon-github-fill"><path fill="none" d="M0 0h24v24H0z"></path><path d="M12 2C6.475 2 2 6.475 2 12a9.994 9.994 0 0 0 6.838 9.488c.5.087.687-.213.687-.476 0-.237-.013-1.024-.013-1.862-2.512.463-3.162-.612-3.362-1.175-.113-.288-.6-1.175-1.025-1.413-.35-.187-.85-.65-.013-.662.788-.013 1.35.725 1.538 1.025.9 1.512 2.338 1.087 2.912.825.088-.65.35-1.087.638-1.337-2.225-.25-4.55-1.113-4.55-4.938 0-1.088.387-1.987 1.025-2.688-.1-.25-.45-1.275.1-2.65 0 0 .837-.262 2.75 1.026a9.28 9.28 0 0 1 2.5-.338c.85 0 1.7.112 2.5.337 1.912-1.3 2.75-1.024 2.75-1.024.55 1.375.2 2.4.1 2.65.637.7 1.025 1.587 1.025 2.687 0 3.838-2.337 4.688-4.562 4.938.362.312.675.912.675 1.85 0 1.337-.013 2.412-.013 2.75 0 .262.188.574.688.474A10.016 10.016 0 0 0 22 12c0-5.525-4.475-10-10-10z"></path></symbol><symbol viewBox="0 0 24 24" id="icon-money-cny-circle-fill"><path fill="none" d="M0 0h24v24H0z"></path><path d="M12 22C6.477 22 2 17.523 2 12S6.477 2 12 2s10 4.477 10 10-4.477 10-10 10zm1-9v-1h3v-2h-2.586l2.122-2.121-1.415-1.415L12 8.586 9.879 6.464 8.464 7.88 10.586 10H8v2h3v1H8v2h3v2h2v-2h3v-2h-3z"></path></symbol><symbol viewBox="0 0 24 24" id="icon-question-line"><path fill="none" d="M0 0h24v24H0z"></path><path d="M12 22C6.477 22 2 17.523 2 12S6.477 2 12 2s10 4.477 10 10-4.477 10-10 10zm0-2a8 8 0 1 0 0-16 8 8 0 0 0 0 16zm-1-5h2v2h-2v-2zm2-1.645V14h-2v-1.5a1 1 0 0 1 1-1 1.5 1.5 0 1 0-1.471-1.794l-1.962-.393A3.501 3.501 0 1 1 13 13.355z"></path></symbol></svg>